<svg width="14" height="14" viewBox="0 0 14 14" fill="none" xmlns="http://www.w3.org/2000/svg">
<path d="M6.1321 1.52027C6.51616 0.849262 7.48384 0.849262 7.8679 1.52027L9.20913 3.86362C9.34547 4.10184 9.57374 4.27354 9.84042 4.33849L12.4494 4.97384C13.1665 5.14845 13.4538 6.01299 12.984 6.58209L11.1789 8.76854C11.0129 8.96961 10.932 9.22758 10.9535 9.48745L11.1873 12.3211C11.2499 13.0785 10.478 13.6261 9.78382 13.3168L7.40691 12.258C7.1479 12.1426 6.8521 12.1426 6.59309 12.258L4.21618 13.3168C3.52197 13.6261 2.75014 13.0785 2.81266 12.3211L3.04655 9.48745C3.068 9.22758 2.9871 8.96962 2.82109 8.76854L1.01601 6.58209C0.546172 6.01299 0.833526 5.14845 1.55056 4.97384L4.15958 4.33849C4.42626 4.27354 4.65453 4.10184 4.79087 3.86362L6.1321 1.52027Z" stroke="#B1B5B9"/>
</svg>
