<svg width="14" height="13" viewBox="0 0 14 13" fill="none" xmlns="http://www.w3.org/2000/svg">
<path d="M6.1321 0.516363C6.51616 -0.154644 7.48384 -0.154645 7.8679 0.516363L9.20913 2.85972C9.34547 3.09793 9.57374 3.26964 9.84042 3.33458L12.4494 3.96993C13.1665 4.14454 13.4538 5.00909 12.984 5.57819L11.1789 7.76463C11.0129 7.96571 10.932 8.22367 10.9535 8.48354L11.1873 11.3172C11.2499 12.0746 10.478 12.6222 9.78382 12.3129L7.40691 11.2541C7.1479 11.1387 6.8521 11.1387 6.59309 11.2541L4.21618 12.3129C3.52197 12.6222 2.75014 12.0746 2.81266 11.3172L3.04655 8.48354C3.068 8.22367 2.9871 7.96571 2.82109 7.76463L1.01601 5.57819C0.546172 5.00909 0.833526 4.14454 1.55056 3.96993L4.15958 3.33458C4.42626 3.26964 4.65453 3.09793 4.79087 2.85972L6.1321 0.516363Z" fill="#FFBA00"/>
</svg>
